<?xml version="1.0" encoding="utf-8" ?>
<svg xmlns="http://www.w3.org/2000/svg" xmlns:xlink="http://www.w3.org/1999/xlink" width="3000" height="3000">
	<path fill="#131018" transform="scale(2.92969 2.92969)" d="M0 0L1024 0L1024 1024L0 1024L0 0Z"/>
	<path fill="#D1A558" transform="scale(2.92969 2.92969)" d="M385.679 607.775Q392.314 607.553 398.952 607.458C408.386 617.519 417.092 628.414 426.16 638.823Q452.845 669.309 480.043 699.337C479.569 668.805 479.424 638.303 478.649 607.77Q490.335 608.043 502.024 607.962L501.994 733.834C497.584 733.949 493.162 733.922 488.75 733.961L480.509 733.927C471.657 725.1 463.778 714.803 455.44 705.44Q426.234 673.082 397.925 639.938C398.231 671.119 397.611 702.287 398.756 733.473C391.012 734.161 383.227 734.034 375.461 734.041L374.779 607.921L385.679 607.775Z"/>
	<defs>
		<linearGradient id="gradient_0" gradientUnits="userSpaceOnUse" x1="794.26764" y1="713.95856" x2="655.80286" y2="638.99359">
			<stop offset="0" stop-color="#A87E42"/>
			<stop offset="1" stop-color="#C89B51"/>
		</linearGradient>
	</defs>
	<path fill="url(#gradient_0)" transform="scale(2.92969 2.92969)" d="M681.764 608.244L720.423 607.968C730.065 607.869 740.219 607.159 749.787 608.436C755.218 609.162 760.428 610.597 765.313 613.114C774.938 618.075 782.018 626.281 785.235 636.655C788.607 647.527 787.45 660.18 782.097 670.229C776.177 681.34 767.794 685.912 756.104 689.392C766.838 703.823 776.839 718.878 787.307 733.516C778.291 734.751 768.533 734.048 759.417 733.995C752.697 725.503 746.983 716.148 740.568 707.417C731.664 695.301 722.002 683.654 712.882 671.683C715.612 670.946 719.13 671.231 721.989 671.27C733.305 671.424 749.1 673.69 758.288 665.504C761.982 662.213 763.854 657.697 764.028 652.789Q764.052 652.264 764.048 651.739Q764.045 651.214 764.014 650.689Q763.984 650.165 763.926 649.642Q763.868 649.12 763.784 648.602Q763.699 648.083 763.588 647.57Q763.476 647.057 763.338 646.55Q763.201 646.043 763.037 645.543Q762.873 645.044 762.683 644.554Q762.494 644.064 762.279 643.585Q762.065 643.105 761.825 642.638Q761.586 642.17 761.323 641.715Q761.06 641.26 760.774 640.82Q760.488 640.379 760.179 639.954Q759.87 639.529 759.54 639.121Q759.21 638.712 758.859 638.321Q758.508 637.93 758.137 637.558C755.589 635.001 751.646 632.357 748.108 631.398C737.057 628.405 707.986 630.779 694.515 630.502L695.565 733.76Q683.59 733.921 671.613 733.959Q671.913 671.133 670.905 608.314L681.764 608.244Z"/>
	<path fill="#D1A558" transform="scale(2.92969 2.92969)" d="M298.863 607.219C316.662 605.871 329.84 610.675 346.472 614.784L345.935 638.11C342.675 636.71 339.519 635.053 336.261 633.639C322.388 627.619 295.888 626.734 281.797 632.371Q280.852 632.756 279.927 633.187Q279.002 633.618 278.1 634.094Q277.198 634.57 276.32 635.091Q275.442 635.611 274.591 636.174Q273.74 636.737 272.918 637.341Q272.096 637.946 271.305 638.59Q270.514 639.234 269.756 639.917Q268.997 640.599 268.273 641.319Q267.55 642.038 266.863 642.792Q266.175 643.546 265.526 644.333Q264.877 645.12 264.268 645.939Q263.658 646.757 263.09 647.605Q262.522 648.452 261.996 649.327Q261.471 650.201 260.989 651.101Q260.507 652 260.07 652.922Q259.634 653.844 259.243 654.787C255.167 664.527 254.776 676.726 258.941 686.507C263.51 697.236 272.987 705.699 283.744 709.956C298.747 715.892 323.275 714.544 337.944 708.138C340.839 706.669 343.787 705.515 346.824 704.377C347.043 711.712 347.628 719.485 346.472 726.744C335.456 731.67 322.758 734.38 310.751 735.197C290.688 736.563 269.157 732.004 253.809 718.348C241.172 707.104 233.934 691.877 233.045 675.033C232.148 658.028 236.672 641.363 248.239 628.558C261.387 614.003 279.796 608.28 298.863 607.219Z"/>
	<path fill="#D1A558" transform="scale(2.92969 2.92969)" d="M525.882 607.465Q585.531 608.363 645.185 608.094L645.237 630.23Q621.598 630.552 597.958 630.385C598.205 648.873 597.984 667.385 597.953 685.875C597.979 701.831 598.366 717.812 598.203 733.763C590.461 734.169 582.649 734.019 574.895 734.056Q575.281 682.258 574.174 630.47C558.147 630.26 542.083 630.528 526.053 630.568L525.882 607.465Z"/>
	<defs>
		<linearGradient id="gradient_1" gradientUnits="userSpaceOnUse" x1="582.96393" y1="330.68491" x2="409.23465" y2="492.7739">
			<stop offset="0" stop-color="#C99955"/>
			<stop offset="1" stop-color="#E3BB71"/>
		</linearGradient>
	</defs>
	<path fill="url(#gradient_1)" transform="scale(2.92969 2.92969)" d="M463.824 304.614C496.186 304.119 528.486 304.994 560.86 304.479C559.714 320.301 553.879 328.968 542.367 339.455C538.642 342.848 535.073 346.26 532.877 350.888C528.042 361.079 531.326 377.101 535.107 387.203C532.557 386.079 530.142 384.851 527.71 383.493C521.49 369.055 519.593 348.815 530.956 336.371C538.717 327.871 544.717 327.141 548.227 314.538C541.279 315.59 533.699 315.103 526.671 315.075C509.486 315.007 492.254 314.119 475.087 314.989C478.843 323.076 484.304 327.875 490.455 334.068C505.163 348.876 504.693 364.858 497.676 383.458C496.124 387.571 493.084 393.673 493.453 398.165C494.179 406.983 503.008 412.776 502.8 423.474C502.487 439.557 489.261 451.429 478.563 461.678C467.173 471.923 449.111 485.285 444.831 500.395C442.635 508.145 444.686 515.801 448.615 522.58C460.588 543.242 487.97 544.324 508.655 549.773C489.113 549.431 463.998 550.096 448.544 536.357C440.854 529.52 434.334 519.203 433.858 508.704C432.595 480.829 468.746 461.063 485.645 442.675C489.976 437.963 493.334 432.368 494.023 425.876C495.171 415.067 484.528 410.227 484.378 400.293C484.149 385.145 498.626 372.268 492.587 353.698C490.927 348.591 487.606 345.11 483.793 341.554C471.446 330.034 464.647 322.091 463.824 304.614Z"/>
	<defs>
		<linearGradient id="gradient_2" gradientUnits="userSpaceOnUse" x1="633.08728" y1="448.03607" x2="531.16046" y2="468.71774">
			<stop offset="0" stop-color="#C5964F"/>
			<stop offset="1" stop-color="#DDB46F"/>
		</linearGradient>
	</defs>
	<path fill="url(#gradient_2)" transform="scale(2.92969 2.92969)" d="M574.69 382.671Q580.411 382.016 586.156 382.406C598.693 383.371 610.107 389.039 618.215 398.707Q618.962 399.586 619.664 400.502Q620.366 401.417 621.021 402.367Q621.677 403.316 622.284 404.297Q622.891 405.278 623.449 406.288Q624.007 407.298 624.513 408.334Q625.02 409.371 625.474 410.431Q625.929 411.491 626.33 412.573Q626.73 413.655 627.077 414.755Q627.423 415.856 627.715 416.972Q628.006 418.088 628.241 419.218Q628.476 420.347 628.655 421.487Q628.833 422.627 628.955 423.774Q629.077 424.921 629.141 426.073Q629.205 427.225 629.212 428.379Q629.219 429.532 629.168 430.685Q629.117 431.837 629.009 432.986C627.065 455.103 611.428 469.8 595.356 483.171C593.89 481.597 592.473 479.972 591.037 478.369C604.28 465.838 618.401 450.958 619.608 431.775C620.241 421.719 617.48 411.667 610.715 404.045C603.961 396.435 594.285 392.472 584.237 391.94C568.322 391.096 550.041 398.114 538.355 408.883C534.013 412.885 530.302 418.021 530.175 424.147C529.98 433.54 537.735 442.175 543.913 448.409C559.88 463.639 582.683 475.957 588.874 498.649C591.164 507.042 590.058 515.685 585.647 523.205C578.391 535.575 565.593 539.956 552.467 543.341C561.456 538.236 569.178 531.768 575.292 523.362C596.922 493.626 550.945 469.987 534.599 451.698C528.552 444.931 523.617 436.797 522.227 427.702C521.099 420.316 522.689 412.954 527.194 406.909C537.423 393.182 558.27 384.98 574.69 382.671Z"/>
	<path fill="#3B2749" transform="scale(2.92969 2.92969)" d="M413.926 392.5L414.232 392.866C414.191 393.269 414.196 393.562 413.961 393.94C412.863 395.705 410.845 397.394 409.505 399.045C404.963 404.642 400.277 410.413 396.536 416.574C390.075 427.213 384.949 439.331 383.587 451.788C380.361 481.3 393.956 506.801 414.483 527.105C419.503 532.071 426.442 536.083 430.753 541.544C431.886 542.979 433.12 544.131 434.465 545.368C430.706 544.177 426.889 543.304 423.049 542.42C409.017 539.623 392.758 525.723 384.045 514.813C372.422 500.261 366.476 482.84 368.647 464.152C371.726 437.648 393.318 408.858 413.926 392.5Z"/>
	<path fill="#D1A558" transform="scale(2.92969 2.92969)" d="M509.715 118.406C516.068 122.541 525.21 132.523 529.789 138.443C537.561 148.491 541.986 160.907 540.246 173.678C537.276 195.485 520.213 206.674 504.162 219.046C496.573 224.896 490.258 232.192 489.08 242.044C487.023 259.247 502.272 273.75 512.1 286.201C501.593 280.641 488.985 271.794 482.523 261.745C478.645 255.714 476.992 249.013 477.458 241.875C479.688 207.768 521.981 200.381 528.253 171.461C531.65 155.801 527.511 143.48 518.576 130.688C515.786 126.694 512.623 122.952 509.995 118.85L509.715 118.406Z"/>
	<path fill="#3B2749" transform="scale(2.92969 2.92969)" d="M395.331 769.131C401.638 768.623 408.07 769.631 413.357 773.298Q413.815 773.612 414.257 773.948Q414.698 774.284 415.123 774.642Q415.547 775 415.954 775.378Q416.36 775.757 416.747 776.155Q417.134 776.553 417.501 776.97Q417.867 777.386 418.213 777.821Q418.559 778.255 418.882 778.706Q419.206 779.157 419.507 779.624Q419.808 780.091 420.085 780.572Q420.362 781.052 420.615 781.547Q420.869 782.041 421.097 782.547Q421.325 783.053 421.528 783.569Q421.731 784.086 421.908 784.612Q422.085 785.139 422.236 785.673Q422.387 786.207 422.511 786.748Q422.635 787.289 422.732 787.836C423.771 793.845 422.635 800.48 418.996 805.452C414.745 811.259 408.366 813.786 401.483 814.759C394.973 815.251 388.79 814.491 383.286 810.68C378.31 807.236 375.008 802.196 373.972 796.222Q373.87 795.656 373.796 795.085Q373.722 794.514 373.677 793.941Q373.632 793.367 373.617 792.792Q373.601 792.217 373.614 791.642Q373.627 791.066 373.669 790.493Q373.712 789.919 373.783 789.348Q373.854 788.777 373.954 788.21Q374.054 787.643 374.182 787.082Q374.31 786.521 374.467 785.968Q374.623 785.414 374.807 784.869Q374.992 784.324 375.203 783.789Q375.415 783.254 375.653 782.73Q375.891 782.206 376.156 781.695Q376.42 781.184 376.71 780.687Q377 780.19 377.314 779.708Q377.629 779.226 377.967 778.761C382.212 773.001 388.431 770.126 395.331 769.131Z"/>
	<path fill="#131018" transform="scale(2.92969 2.92969)" d="M395.686 777.009Q396.06 776.945 396.437 776.9Q396.814 776.855 397.193 776.828Q397.571 776.801 397.951 776.793Q398.33 776.785 398.71 776.796Q399.089 776.807 399.467 776.836Q399.846 776.865 400.222 776.913Q400.599 776.961 400.973 777.027Q401.346 777.093 401.716 777.178Q402.087 777.262 402.452 777.365Q402.817 777.468 403.177 777.588Q403.537 777.709 403.891 777.847Q404.245 777.985 404.591 778.14Q404.937 778.295 405.276 778.467Q405.614 778.639 405.943 778.828Q406.273 779.016 406.593 779.221Q406.912 779.425 407.222 779.645Q407.531 779.865 407.829 780.1Q408.128 780.335 408.414 780.584Q408.7 780.833 408.974 781.096Q409.247 781.359 409.508 781.635Q409.768 781.911 410.015 782.2Q410.261 782.489 410.493 782.789Q410.726 783.089 410.943 783.401Q411.16 783.712 411.361 784.034Q411.562 784.356 411.748 784.687Q411.933 785.018 412.102 785.358Q412.271 785.698 412.423 786.046Q412.575 786.393 412.71 786.748Q412.844 787.103 412.962 787.464Q413.079 787.825 413.178 788.192Q413.277 788.558 413.358 788.929Q413.439 789.3 413.502 789.674Q413.565 790.048 413.609 790.425Q413.653 790.802 413.679 791.181Q413.705 791.56 413.712 791.939Q413.719 792.319 413.707 792.698Q413.696 793.078 413.666 793.456Q413.635 793.834 413.587 794.211Q413.538 794.587 413.471 794.961Q413.403 795.334 413.318 795.704Q413.232 796.074 413.129 796.439Q413.025 796.804 412.904 797.164Q412.782 797.524 412.643 797.877Q412.505 798.23 412.348 798.576Q412.192 798.922 412.019 799.26Q411.846 799.598 411.657 799.927Q411.468 800.256 411.262 800.575Q411.057 800.895 410.836 801.203Q410.616 801.512 410.38 801.81Q410.145 802.107 409.895 802.393Q409.645 802.679 409.381 802.952Q409.117 803.225 408.84 803.484Q408.564 803.744 408.274 803.99Q407.985 804.236 407.684 804.467Q407.383 804.698 407.071 804.915Q406.759 805.131 406.437 805.331Q406.115 805.532 405.783 805.717Q405.451 805.901 405.111 806.069Q404.77 806.237 404.422 806.388Q404.074 806.539 403.719 806.673Q403.364 806.807 403.002 806.923Q402.641 807.039 402.274 807.138Q401.908 807.236 401.537 807.316Q401.165 807.396 400.791 807.458Q400.418 807.52 400.042 807.563Q399.666 807.606 399.288 807.631Q398.911 807.656 398.533 807.662Q398.154 807.668 397.776 807.656Q397.398 807.644 397.021 807.613Q396.644 807.582 396.269 807.533Q395.894 807.484 395.521 807.416Q395.149 807.349 394.781 807.263Q394.412 807.177 394.048 807.074Q393.685 806.97 393.326 806.849Q392.968 806.727 392.616 806.588Q392.264 806.45 391.919 806.294Q391.574 806.138 391.238 805.966Q390.901 805.793 390.573 805.604Q390.245 805.415 389.927 805.211Q389.609 805.006 389.301 804.786Q388.993 804.566 388.697 804.331Q388.4 804.096 388.115 803.847Q387.83 803.598 387.558 803.336Q387.286 803.073 387.027 802.797Q386.768 802.521 386.523 802.233Q386.277 801.945 386.047 801.646Q385.816 801.346 385.6 801.035Q385.384 800.724 385.184 800.403Q384.983 800.083 384.799 799.752Q384.614 799.422 384.446 799.083Q384.278 798.744 384.127 798.397Q383.976 798.05 383.842 797.697Q383.708 797.343 383.591 796.983Q383.475 796.623 383.376 796.258Q383.277 795.892 383.196 795.523Q383.116 795.153 383.053 794.78Q382.99 794.407 382.946 794.031Q382.902 793.655 382.876 793.278Q382.85 792.9 382.843 792.522Q382.836 792.144 382.847 791.766Q382.859 791.388 382.888 791.01Q382.918 790.633 382.966 790.258Q383.015 789.883 383.081 789.51Q383.148 789.138 383.233 788.769Q383.317 788.4 383.42 788.036Q383.523 787.672 383.643 787.313Q383.764 786.955 383.902 786.602Q384.039 786.25 384.194 785.905Q384.349 785.56 384.521 785.222Q384.693 784.885 384.881 784.557Q385.069 784.229 385.272 783.91Q385.476 783.591 385.696 783.283Q385.915 782.974 386.149 782.677Q386.383 782.38 386.631 782.094Q386.88 781.809 387.142 781.536Q387.404 781.263 387.679 781.003Q387.954 780.744 388.241 780.498Q388.529 780.252 388.828 780.02Q389.127 779.788 389.437 779.572Q389.747 779.355 390.068 779.154Q390.388 778.953 390.718 778.767Q391.048 778.582 391.387 778.413Q391.725 778.244 392.072 778.092Q392.418 777.94 392.771 777.805Q393.125 777.67 393.485 777.553Q393.844 777.435 394.209 777.336Q394.574 777.236 394.944 777.154Q395.313 777.073 395.686 777.009Z"/>
	<path fill="#D1A558" transform="scale(2.92969 2.92969)" d="M453.263 562.166C463.613 562.146 474.004 562.702 484.358 562.88Q505.205 563.058 526.053 562.965Q540.547 562.887 555.04 562.661C560.735 562.587 566.951 562.097 572.585 562.885C577.535 563.577 581.642 569.218 584.353 573.026C579.736 573.177 575.095 573.09 570.475 573.095L438.764 573.086C442.539 568.06 447.481 564.538 453.263 562.166Z"/>
	<path fill="#3B2749" transform="scale(2.92969 2.92969)" d="M529.065 770.201C532.126 770.094 535.151 770.151 538.211 770.252C546.584 779.541 554.343 789.416 562.471 798.924L562.448 770.167L571.802 770.275C571.41 778.464 572.766 808.672 571.335 813.762L563.978 813.929C554.656 804.541 547.052 793.382 538.025 783.68L538.051 813.847C535.052 813.745 532.009 813.894 529.007 813.947Q528.885 792.074 529.065 770.201Z"/>
	<path fill="#3B2749" transform="scale(2.92969 2.92969)" d="M622.642 769.088C631.361 768.271 638.296 770.274 645.586 774.959L640.344 781.616C638.926 780.775 637.492 779.898 635.991 779.212C631.236 777.04 625.426 776.075 620.465 778.134Q619.788 778.411 619.142 778.756Q618.497 779.1 617.889 779.508Q617.281 779.915 616.718 780.382Q616.155 780.849 615.641 781.37Q615.127 781.892 614.669 782.462Q614.211 783.032 613.812 783.646Q613.414 784.26 613.079 784.91Q612.744 785.561 612.477 786.242Q612.192 786.988 611.984 787.759Q611.776 788.53 611.647 789.319Q611.518 790.107 611.47 790.904Q611.422 791.701 611.455 792.499Q611.487 793.297 611.601 794.088Q611.714 794.879 611.907 795.654Q612.1 796.429 612.37 797.18Q612.641 797.932 612.986 798.652Q613.301 799.326 613.681 799.966Q614.061 800.606 614.504 801.204Q614.946 801.803 615.446 802.354Q615.945 802.906 616.498 803.405Q617.05 803.903 617.649 804.345Q618.249 804.786 618.889 805.165Q619.529 805.544 620.204 805.858Q620.879 806.171 621.582 806.416C627.507 808.478 633.165 806.647 638.543 804.048L638.662 795.887L626.818 795.837L626.913 789.446L627.322 788.679C632.84 787.427 641.447 788.332 647.309 788.348C647.125 794.981 647.32 801.627 647.419 808.261C644.212 810.666 640.362 812.478 636.509 813.574C628.792 815.77 620.132 815.138 613.125 811.082C608.041 808.139 604.286 803.426 602.879 797.69C601.395 791.641 602.416 784.673 605.81 779.426C609.749 773.338 615.81 770.555 622.642 769.088Z"/>
	<path fill="#3B2749" transform="scale(2.92969 2.92969)" d="M679.254 770.215C690.3 769.985 701.42 770.301 712.471 770.362L712.406 777.922L688.035 778.033L688.071 787.976L710.469 787.961L710.553 795.45L689.875 795.491L688.754 795.557C687.135 797.448 687.913 803.712 687.975 806.341C696.244 806.61 704.586 806.372 712.863 806.357L712.928 813.582Q696.006 813.444 679.089 813.864L678.966 786.025C678.955 780.83 678.616 775.363 679.254 770.215Z"/>
	<path fill="#3B2749" transform="scale(2.92969 2.92969)" d="M453.913 770.034L462.603 769.96C462.513 778.266 460.395 797.046 465.707 803.306C467.747 805.711 470.59 806.808 473.696 806.929C477.116 807.062 480.647 806.259 483.15 803.798C488.936 798.11 486.966 778.135 486.966 770.044L495.066 770.001L495.026 778.125C495.023 787.606 497.153 801.209 490.154 808.566C486.223 812.698 480.369 814.697 474.748 814.733C469.002 814.769 462.991 813.001 458.899 808.807Q458.17 808.057 457.538 807.223Q456.906 806.389 456.381 805.484Q455.856 804.579 455.446 803.616Q455.037 802.654 454.748 801.648C452.685 794.467 453.884 778.098 453.913 770.034Z"/>
	<path fill="#3B2749" transform="scale(2.92969 2.92969)" d="M319.348 770.24C320.352 770.216 321.237 770.364 322.221 770.547C323.466 773.277 322.555 800.969 322.527 806.018L345.15 805.967C345.212 808.084 345.686 810.997 344.642 812.877C343.222 813.908 341.307 813.587 339.631 813.539Q326.572 813.499 313.52 813.938C313.495 799.708 312.591 784.876 313.679 770.718C315.282 769.925 317.559 770.244 319.348 770.24Z"/>
	<path fill="#3B2749" transform="scale(2.92969 2.92969)" d="M504.891 466.536C503.833 472.776 479.471 488.258 476.193 501.86C475.259 505.738 475.796 509.652 477.973 513.022C483.734 521.945 497.656 526.633 507.607 528.229C512.397 528.998 517.326 529.073 522.067 530.074C522.231 530.109 522.394 530.147 522.557 530.183C519.573 530.389 516.6 530.721 513.625 531.029L503.758 531.443C493.7 531.766 481.067 528.09 473.722 520.942C470.17 517.485 467.802 512.87 467.782 507.848C467.728 494.128 482.97 484.983 492.467 477.501C496.838 474.058 500.914 470.422 504.891 466.536Z"/>
	<path fill="#3B2749" transform="scale(2.92969 2.92969)" d="M530.411 221.445C530.243 223.916 527.784 227.136 526.664 229.391C518.71 245.412 515.627 259.878 521.454 277.086L518.112 272.738C514.724 267.813 512.052 262.677 511.277 256.673C509.588 243.598 522.908 231.174 530.411 221.445Z"/>
</svg>
